<svg xmlns="http://www.w3.org/2000/svg" width="811.453" height="311.372" viewBox="0 0 811.453 311.372" xmlns:xlink="http://www.w3.org/1999/xlink" role="img" artist="Katerina Limpitsouni" source="https://undraw.co/"><g transform="translate(-411.975 -357.501)"><path d="M831.938,243.782a48.214,48.214,0,0,1,48.147-45.694c1.465,0,2.912.076,4.344.2a64.058,64.058,0,0,1,110.733-.052c1.208-.091,2.424-.152,3.656-.152a48.214,48.214,0,0,1,48.147,45.693" transform="translate(-419.962 207.558)" fill="#f2f2f2"/><path d="M844.569,239.117a48.214,48.214,0,0,1,48.147-45.694c1.465,0,2.912.076,4.344.2a64.058,64.058,0,0,1,110.733-.052c1.208-.091,2.424-.152,3.656-.152a48.214,48.214,0,0,1,48.147,45.693" transform="translate(-422.552 208.515)" fill="none" stroke="#3f3d56" stroke-miterlimit="10" stroke-width="1"/><path d="M155.988,539.473A159.577,159.577,0,0,1,315.344,388.236c4.85,0,9.639.253,14.379.677a212.017,212.017,0,0,1,366.5-.173c4-.3,8.024-.5,12.1-.5A159.577,159.577,0,0,1,867.679,539.473" transform="translate(322.013 86.835)" fill="#f2f2f2"/><path d="M197.794,524.033A159.577,159.577,0,0,1,357.15,372.8c4.85,0,9.639.253,14.379.677a212.017,212.017,0,0,1,366.5-.173c4-.3,8.024-.5,12.1-.5A159.577,159.577,0,0,1,909.485,524.033" transform="translate(313.444 90)" fill="none" stroke="#3f3d56" stroke-miterlimit="10" stroke-width="1"/><path d="M84.962,212.741a65.236,65.236,0,0,1,65.146-61.827c1.983,0,3.94.1,5.878.277a86.674,86.674,0,0,1,149.827-.071c1.635-.123,3.28-.206,4.946-.206a65.236,65.236,0,0,1,65.146,61.825" transform="translate(493.985 456.133)" fill="#5331CA"/><path d="M102.053,206.428A65.236,65.236,0,0,1,167.2,144.6c1.983,0,3.94.1,5.878.277a86.674,86.674,0,0,1,149.828-.071c1.635-.123,3.28-.206,4.946-.206A65.236,65.236,0,0,1,393,206.427" transform="translate(490.482 457.427)" fill="none" stroke="#3f3d56" stroke-miterlimit="10" stroke-width="1"/></g></svg>
