<?xml version="1.0" encoding="UTF-8"?>
<svg xmlns="http://www.w3.org/2000/svg" viewBox="0 0 360 200">
  <defs>
    <g id="vial-icon" stroke-width="1.2">
      <rect
        x="0.86"
        y="0.5"
        width="9.61"
        height="3.0"
        fill="currentColor"
        stroke="currentColor"
        stroke-linejoin="round"
      />
      <path
        d="M0.17 5.96L0.14 19.44H11.17V5.81L0.18 5.97Z"
        fill="none"
        stroke="currentColor"
        stroke-linecap="round"
        stroke-linejoin="round"
      />
      <line x1="7.14" y1="0.00" x2="7.14" y2="12.94" stroke="currentColor" />
      <line x1="4" y1="-0.00" x2="4" y2="14.94" stroke="currentColor" />
    </g>
    <g id="pioreactor-icon" stroke="currentColor" stroke-width="1.2" fill="none" fill-rule="evenodd">
      <g transform="translate(-728.000000, -1502.000000)">
        <g transform="translate(729.000000, 1503.000000)" stroke-width="1.2">
          <path d="M1.4,18.9 L1.4,14.7 L0,14.7 L0,11.2 L2.799,11.2 L2.8,0 L14,0 L13.999,11.2 L16.8,11.2 L16.8,14.7 L15.399,14.7 L15.4,18.9 L1.4,18.9 Z" />
          <circle cx="8.4" cy="13.3" r="2.1" />
        </g>
      </g>
    </g>
  </defs>

  <g style="color:#616161" transform="translate(14 0)">
    <use href="#pioreactor-icon" transform="translate(215 76) scale(3)" />

    <line x1="105" y1="107.5" x2="200" y2="107.5" stroke="currentColor" stroke-width="2.5" />
    <rect x="105" y="103.5" width="2.5" height="8" fill="currentColor" />
    <rect x="200" y="103.5" width="2.5" height="8" fill="currentColor" />

    <use href="#vial-icon" transform="translate(50 85) scale(2.6)" />
    <path
      d="M316.099,85.846c-24.586-35.32-45.821-65.827-50.974-80.433c-1.139-3.215-4.145-5.372-7.554-5.414    c-3.15,0.096-6.476,2.044-7.68,5.227c-5.244,13.812-25.405,42.765-48.752,76.314C147.671,158.326,74.447,263.494,74.447,331.917    c0,100.926,82.103,183.034,183.029,183.034s183.029-82.108,183.029-183.034C440.505,264.6,368.599,161.285,316.099,85.846z"
      fill="currentColor"
      transform="translate(52 40) scale(0.05)"
    />
  </g>
</svg>
