<?xml version="1.0" encoding="UTF-8"?>
<svg xmlns="http://www.w3.org/2000/svg" viewBox="0 0 360 200">
  <defs>

    <g id="pioreactor-icon" stroke="currentColor" stroke-width="1.2" fill="none" fill-rule="evenodd">
      <g transform="translate(-728.000000, -1502.000000)">
        <g transform="translate(729.000000, 1503.000000)" stroke-width="1.2">
            <rect
            x="3.9"
            y="-3"
            width="9.0"
            height="3.0"
            fill="currentColor"
            stroke="currentColor"
            stroke-linejoin="round"
          />
          <path d="M1.4,18.9 L1.4,14.7 L0,14.7 L0,11.2 L2.799,11.2 L2.8,0 L14,0 L13.999,11.2 L16.8,11.2 L16.8,14.7 L15.399,14.7 L15.4,18.9 L1.4,18.9 Z" />
          <circle cx="8.4" cy="13.3" r="2.1" />
        </g>
      </g>
    </g>
  </defs>

  <g style="color:#616161" transform="translate(-63 15)">
    <use href="#pioreactor-icon" transform="translate(215 76) scale(3)" />

    <use href="#vial-icon" transform="translate(50 85) scale(2.6)" />
    <path
      d="M316.099,85.846c-24.586-35.32-45.821-65.827-50.974-80.433c-1.139-3.215-4.145-5.372-7.554-5.414    c-3.15,0.096-6.476,2.044-7.68,5.227c-5.244,13.812-25.405,42.765-48.752,76.314C147.671,158.326,74.447,263.494,74.447,331.917    c0,100.926,82.103,183.034,183.029,183.034s183.029-82.108,183.029-183.034C440.505,264.6,368.599,161.285,316.099,85.846z"
      fill="currentColor"
      transform="translate(230 35) scale(0.05)"
    />
  </g>
  <line x1="115" y1="65" x2="245" y2="150" stroke="#e53935" stroke-width="10" stroke-linecap="round" opacity="0.85" />
</svg>
