<?xml version="1.0" encoding="UTF-8"?>
<svg xmlns="http://www.w3.org/2000/svg" viewBox="0 0 360 200">
  <g style="color:#616161" fill="none" stroke="currentColor" stroke-width="3.6" stroke-linejoin="round" stroke-linecap="round">
    <!-- Simple scale body -->
    <rect x="118" y="138" width="124" height="34" rx="8" />
    <rect x="166" y="145" width="30" height="20" rx="3" />
    <text
      x="181"
      y="161"
      font-size="17"
      font-family="Menlo,Consolas,system-ui"
      text-anchor="middle"
      fill="currentColor"
      stroke="currentColor"
      stroke-width="0.8"
      paint-order="stroke fill"
    >0</text>

    <!-- Vial on scale -->
    <g transform="translate(166 83) scale(2.6)" stroke-width="1.2">
      <path
        d="M0.17 5.96L0.14 19.44H11.17V5.81L0.18 5.97Z"
        fill="none"
        stroke="currentColor"
        stroke-linecap="round"
        stroke-linejoin="round"
      />
      <line x1="1.7" y1="2.4" x2="9.6" y2="2.4" stroke="currentColor" />
      <line x1="1.6" y1="4.0" x2="9.7" y2="4.5" stroke="currentColor" />
      <rect x="1.1" y="18.0" width="9.0" height="1.0" fill="#9fd7f4" stroke="none" />
    </g>

    <!-- Out tube above droplets -->
    <path d="M180 22V40" />
    <circle cx="180" cy="40" r="4" fill="currentColor" stroke="none" />

    <!-- Droplet above vial -->

    <path
      d="M 81.805,44.292 c -1.229,-1.766 -2.291,-3.291 -2.549,-4.022 c -0.057,-0.161 -0.207,-0.269 -0.378,-0.271 c -0.158,0.005 -0.324,0.102 -0.384,0.261 c -0.262,0.691 -1.27,2.138 -2.438,3.816 C 73.384,47.916 69.722,53.175 69.722,56.596 c 0,5.046 4.105,9.152 9.151,9.152 s 9.151,-4.105 9.151,-9.152 C 88.025,53.23 84.43,48.064 81.805,44.292 z"
      transform="translate(145 30) scale(0.45)"
      fill="#9fd7f4"
      stroke="none"
    />


    <path
      d="M 81.805,44.292 c -1.229,-1.766 -2.291,-3.291 -2.549,-4.022 c -0.057,-0.161 -0.207,-0.269 -0.378,-0.271 c -0.158,0.005 -0.324,0.102 -0.384,0.261 c -0.262,0.691 -1.27,2.138 -2.438,3.816 C 73.384,47.916 69.722,53.175 69.722,56.596 c 0,5.046 4.105,9.152 9.151,9.152 s 9.151,-4.105 9.151,-9.152 C 88.025,53.23 84.43,48.064 81.805,44.292 z"
      transform="translate(145 46) scale(0.45)"
      fill="#9fd7f4"
      stroke="none"
    />


  </g>
  <g style="color:#616161" fill="none" stroke="currentColor" stroke-width="1.4" stroke-linecap="round" stroke-linejoin="round">
    <text x="194" y="32" font-size="12" font-family="Menlo,Consolas,system-ui" fill="currentColor">Out</text>
  </g>
</svg>
